<svg width="112" height="55" fill="none" xmlns="http://www.w3.org/2000/svg"><g clip-path="url(#clip0)"><path d="M0 31.493l2.126 4.195h15.688l1.954-4.195-.977-1.38-4.482 2.07-11.953-3.966L0 31.493z" fill="#02A5C1"/><path d="M.69 32.872l1.379 2.815h15.745l1.552-3.275-5.057 1.379-9.137-1.839-4.483.92z" fill="#017387"/><path d="M7.758 15v5.344l-3.506 5.172 10 3.333 2.873-1.322-4.942-7.183V15H7.758zm38.214 11.78h5.517c-.057-.977-.345-1.666-.747-2.126-.46-.517-1.15-.747-2.011-.747-.805 0-1.437.23-1.954.747-.517.46-.805 1.207-.805 2.126zm6.494 4.138h2.7c-.401 1.494-1.148 2.643-2.24 3.447-1.092.805-2.529 1.207-4.195 1.207-2.069 0-3.678-.632-4.827-1.954-1.15-1.264-1.724-3.103-1.724-5.516 0-2.299.574-4.08 1.666-5.345 1.15-1.321 2.759-1.953 4.827-1.953 2.184 0 3.85.632 5 1.954 1.15 1.321 1.724 3.16 1.724 5.516v.575c0 .172 0 .287-.058.402h-9.367c.058 1.092.288 1.954.805 2.471.46.575 1.15.862 2.126.862.632 0 1.154-.12 1.552-.402.397-.282.747-.575.977-.862.23-.288.574-.402 1.034-.402zm11.78-2.758c-.517.23-1.207.46-2.126.69 0 0-.82.192-1.264.287-.445.094-1.122.345-1.38.69a2.098 2.098 0 00-.402 1.206c0 .517.172.977.46 1.264.345.287.804.402 1.379.402 1.034 0 1.782-.287 2.356-.862.513-.512.796-1.207.852-2.044l.073-1.031.052-.602zm.862 6.608c-.747.402-1.552.632-2.414.747-.861.115-1.609.115-2.24.115-1.322 0-2.414-.345-3.391-1.034-.977-.69-1.437-1.84-1.437-3.448 0-1.494.46-2.586 1.322-3.218.862-.632 2.011-1.092 3.39-1.264.173 0 .08-.035 1.495-.173 1.415-.138 2.356-.69 2.356-1.38 0-.516-.288-.861-.862-1.034a5.341 5.341 0 00-1.552-.23c-.517 0-.977.058-1.38.23-.401.116-.689.403-.861.805h-3.62c.114-1.092.632-2.011 1.494-2.758.977-.805 2.356-1.207 4.137-1.207 2.011 0 3.505.345 4.54 1.034 1.034.69 1.552 1.724 1.552 2.989v4.884c0 1.437-.288 2.529-.805 3.333-.345.632-.977 1.207-1.724 1.61zm3.391-17.871h1.954c.517 0 .92.172 1.321.517.345.345.517.747.517 1.264v16.665H68.5V16.897zm26.606 11.205c0-1.264-.287-2.299-.805-2.988-.517-.747-1.264-1.15-2.24-1.15-1.035 0-1.782.345-2.3 1.092-.517.747-.804 1.782-.804 3.046 0 1.494.23 2.586.747 3.276.517.747 1.322 1.149 2.241 1.149 1.035 0 1.782-.402 2.299-1.15.632-.746.862-1.838.862-3.275zm-6.149-9.424v4.31c.402-.69.977-1.207 1.724-1.667.632-.345 1.437-.517 2.356-.517 1.667 0 3.103.69 4.138 2.069 1.092 1.379 1.609 3.218 1.609 5.401 0 2.242-.517 4.023-1.61 5.402-.517.69-1.264 1.15-2.183 1.494-.92.288-1.839.46-2.7.46-1.725 0-3.334-.46-4.828-1.322-1.494-.92-2.241-2.586-2.241-5.172V16.84h1.839c.517 0 .92.172 1.322.517.402.402.574.805.574 1.322zM99.243 30.63h3.62c.058.69.288 1.264.805 1.609.517.345 1.264.517 2.183.517.633 0 1.207-.115 1.667-.402.46-.23.632-.575.632-1.034 0-.577-.621-1.058-1.864-1.356-.12-.029-2.077-.491-2.204-.524-1.681-.443-2.819-.98-3.46-1.568-.747-.633-1.092-1.494-1.092-2.586 0-1.38.517-2.471 1.552-3.39 1.092-.805 2.471-1.207 4.195-1.207 1.896 0 3.39.402 4.482 1.206 1.034.92 1.609 2.069 1.667 3.506h-2.299c-.588 0-1.05-.21-1.388-.662-.058-.079-.451-.545-.623-.66-.46-.345-1.035-.46-1.782-.46-.747 0-1.264.115-1.609.345-.345.23-.46.517-.46.977 0 .575.92 1.034 2.816 1.437.23.057 1.303.297 1.432.332 1.625.434 2.761.92 3.453 1.506.689.633 1.034 1.494 1.034 2.586 0 1.552-.574 2.759-1.724 3.62-1.092.805-2.701 1.208-4.884 1.208-2.069 0-3.563-.403-4.598-1.207-1.034-.805-1.551-2.012-1.551-3.563v-.23zM39.479 19.368c-1.38-1.494-3.506-2.241-6.379-2.241l-6.379-.058 3.736 3.276h2.586c1.609 0 2.758.46 3.447 1.437.747.976 1.15 2.47 1.15 4.54 0 2.126-.403 3.62-1.207 4.482-.804.919-2.126 1.379-3.908 1.379h-3.103V22.126l-3.735-3.275v16.607h6.264c1.781 0 3.103-.115 3.965-.402.92-.23 1.724-.69 2.528-1.264.92-.69 1.667-1.724 2.241-3.103.518-1.322.747-2.816.747-4.425.173-2.988-.574-5.287-1.953-6.896zm41.777 8.792c-.517.23-1.207.46-2.126.69 0 0-.82.192-1.265.287-.444.094-1.12.345-1.379.69a2.098 2.098 0 00-.402 1.206c0 .517.172.977.46 1.264.344.287.804.402 1.379.402 1.034 0 1.781-.287 2.356-.862.512-.512.796-1.207.852-2.044l.072-1.031.053-.602zm.862 6.608c-.747.402-1.552.632-2.414.747-.862.115-1.609.115-2.24.115-1.323 0-2.415-.345-3.391-1.034-.977-.69-1.437-1.84-1.437-3.448 0-1.494.46-2.586 1.322-3.218.862-.632 2.011-1.092 3.39-1.264.172 0 .08-.035 1.494-.173 1.415-.138 2.356-.69 2.356-1.38 0-.516-.287-.861-.862-1.034a5.341 5.341 0 00-1.551-.23c-.517 0-.977.058-1.38.23-.402.116-.689.403-.861.805h-3.62c.114-1.092.631-2.011 1.493-2.758.977-.805 2.356-1.207 4.138-1.207 2.011 0 3.505.345 4.54 1.034 1.034.69 1.551 1.724 1.551 2.989v4.884c0 1.437-.287 2.529-.804 3.333-.345.632-.977 1.207-1.724 1.61z" fill="#fff"/></g><defs><clipPath id="clip0"><path fill="#fff" d="M0 0h112v55H0z"/></clipPath></defs></svg>